<svg width="256" height="256" viewBox="0 0 256 256" fill="none" xmlns="http://www.w3.org/2000/svg">
<path d="M220.917 85.6741H228.674M220.917 85.6741C220.917 137.719 213.16 155.067 182.133 155.067C151.107 155.067 160.365 141.262 138.806 87.2173C138.806 87.2173 151.107 77 182.133 77C213.16 77 220.917 85.6741 220.917 85.6741ZM34.7567 85.6741H27M34.7567 85.6741C34.7567 137.719 42.5134 155.067 73.54 155.067C104.567 155.067 101.814 139.118 116.867 88.378C116.867 88.378 104.567 77 73.54 77C42.5134 77 34.7567 85.6741 34.7567 85.6741ZM127.837 84.5058C127.837 79.9048 113.958 94.0088 116.867 90.7553C119.776 87.5019 123.722 85.6741 127.837 85.6741C131.951 85.6741 135.897 87.5019 138.806 90.7553C141.716 94.0088 127.837 79.9048 127.837 84.5058Z" stroke="black" stroke-width="17.1678" stroke-linecap="round" stroke-linejoin="round"/>
<path d="M126.692 147.089V147.076C126.692 147.074 126.734 147.071 129.945 147.071C133.107 147.071 133.195 147.074 133.198 147.076V147.113C133.198 147.112 133.198 147.103 133.199 147.088C133.201 147.05 133.205 146.972 133.217 146.859C133.242 146.633 133.294 146.274 133.406 145.828C133.63 144.932 134.081 143.725 134.987 142.518C136.686 140.252 140.497 137.314 149.461 137.313C157.977 137.313 163.707 141.494 169.301 146.289C172.007 148.609 174.887 151.261 177.847 153.234C180.895 155.266 184.37 156.83 188.496 156.83C191.007 156.83 193.406 156.1 195.487 155.146C194.627 157.198 193.547 159.435 192.211 161.662C187.626 169.304 180.373 176.347 168.979 176.347C153.421 176.347 144.432 171.702 139.38 167.372C136.827 165.184 135.211 163.017 134.246 161.437C133.763 160.646 133.443 160.004 133.251 159.581C133.156 159.37 133.093 159.214 133.058 159.123C133.04 159.078 133.029 159.048 133.025 159.036L133.023 159.032L129.945 149.797L126.867 159.032C126.866 159.033 126.865 159.034 126.865 159.036C126.86 159.048 126.85 159.078 126.833 159.123C126.797 159.214 126.734 159.37 126.638 159.581C126.447 160.004 126.128 160.646 125.645 161.437C124.679 163.017 123.062 165.184 120.509 167.372C115.458 171.702 106.47 176.347 90.9116 176.347C79.5171 176.347 72.2634 169.304 67.6782 161.662C66.3421 159.435 65.2619 157.199 64.4019 155.146C66.4829 156.1 68.8834 156.83 71.395 156.83C75.5206 156.83 78.995 155.266 82.0425 153.234C85.0022 151.261 87.8822 148.609 90.5884 146.289C96.183 141.494 101.912 137.313 110.428 137.313C119.393 137.313 123.204 140.252 124.903 142.518C125.809 143.725 126.261 144.932 126.485 145.828C126.596 146.274 126.648 146.633 126.672 146.859C126.684 146.972 126.69 147.05 126.692 147.088V147.089Z" fill="white" stroke="black" stroke-width="6.5056"/>
</svg>
